<?xml version="1.0" encoding="utf-8"?><svg viewBox="0 0 239 85" xmlns="http://www.w3.org/2000/svg" xmlns:xlink="http://www.w3.org/1999/xlink"><style>:root>svg{display:none}:root>svg:target{display:block}</style><svg viewBox="0 0 39 39" id="eye" xmlns="http://www.w3.org/2000/svg"><circle cx="19.5" cy="19.5" r="18.75"/><path d="M30.854 19.053c-.206-.281-5.101-6.883-11.354-6.883-6.253 0-11.149 6.602-11.354 6.882a.759.759 0 000 .895c.205.281 5.101 6.883 11.354 6.883 6.253 0 11.148-6.602 11.354-6.882a.758.758 0 000-.895zM19.5 25.313c-4.606 0-8.595-4.381-9.776-5.813 1.18-1.434 5.16-5.813 9.776-5.813 4.605 0 8.594 4.38 9.776 5.813-1.18 1.434-5.16 5.813-9.776 5.813z"/><path d="M19.5 14.95a4.555 4.555 0 00-4.55 4.55 4.555 4.555 0 004.55 4.55 4.555 4.555 0 004.55-4.55 4.555 4.555 0 00-4.55-4.55zm0 7.583a3.036 3.036 0 01-3.033-3.033 3.036 3.036 0 013.033-3.033 3.036 3.036 0 013.033 3.033 3.036 3.036 0 01-3.033 3.033z"/></svg><svg viewBox="0 0 15 14" id="linkedin" xmlns="http://www.w3.org/2000/svg"><path d="M3.226 4.409H.176v9.16h3.05v-9.16zM1.72 0C1.207 0 .792.15.475.448A1.488 1.488 0 000 1.581c0 .45.154.825.462 1.127.308.302.715.453 1.22.453h.019c.517 0 .935-.15 1.252-.453.317-.302.473-.678.467-1.127-.006-.457-.164-.834-.472-1.133C2.64.15 2.231 0 1.72 0zM13.236 5.245c-.641-.699-1.489-1.049-2.542-1.049-.388 0-.741.048-1.059.144-.317.095-.585.23-.804.402a3.943 3.943 0 00-.522.48c-.123.14-.243.304-.36.49V4.408H4.908l.009.443c.006.296.01 1.208.01 2.736 0 1.528-.007 3.522-.02 5.98H7.95V8.457c0-.314.033-.564.101-.749.13-.314.325-.577.587-.79.262-.213.587-.319.976-.319.53 0 .92.183 1.169.55.25.367.374.874.374 1.52v4.9h3.04v-5.25c0-1.35-.32-2.374-.96-3.074z"/></svg><svg viewBox="0 0 239 85" id="logo" xmlns="http://www.w3.org/2000/svg"><g clip-path="url(#cclip0_96:167)"><path d="M117.86 51.21c1.632 0 3.872-.512 5.248-2.336v8.096h4.96V34.73h-4.96v2.176c-1.376-1.824-3.616-2.336-5.248-2.336-4.032 0-7.2 2.816-7.2 8.32 0 5.184 3.168 8.32 7.2 8.32zm1.504-12.736c2.4 0 3.744 1.856 3.744 4.416 0 2.592-1.344 4.416-3.744 4.416-2.4 0-3.744-1.824-3.744-4.416 0-2.56 1.344-4.416 3.744-4.416zM73.821 31.507c-7.387-6.693-16.407-11.24-27.23-14.157-.773-1.287.602-3.432 0-4.72-.257-.6-1.03-.772-1.632-.514-1.632.858-3.092 3.089-4.209 4.633-13.572.343-22.075 6.092-27.916 14.329-2.92 4.118-5.068 9.266-5.67 15.444-.687 6.435.86 12.87 3.179 17.761 4.38 9.267 12.884 16.216 24.05 18.19 13.315 2.317 23.709-3.346 30.151-10.296.172-.258.172-.515-.086-.772-.687-.601-1.804-.515-2.49.085-6.186 6.007-15.205 10.811-27.145 8.666-9.878-1.63-18.124-8.065-22.247-16.73-2.233-4.634-3.522-10.383-3.007-16.132.43-5.748 2.32-10.553 5.068-14.5 5.326-7.808 14.431-14.071 27.574-13.557.43-1.458 1.288-3.088 2.147-3.775-.086 1.287.172 2.317.344 3.432 10.136 2.917 19.327 6.693 26.37 12.699.773.686 2.749 2.059 2.663 2.917-.086.686-1.46 1.287-1.89 1.973-.859 1.287-.687 2.746-1.975 3.09-.86.257-2.405-.258-3.694-.516-3.78-.858-6.872-2.402-10.737-2.66-3.694-.257-5.841 1.288-7.989 2.403-1.46.772-2.92 1.373-4.638 1.63-3.694.6-7.473-.6-9.62-2.574-.43-.429-1.46-2.745-2.406-1.887-.43.429.43 1.716.687 2.145.773 1.115 1.031 1.373 1.633 1.887 2.061 1.716 6.528 3.346 10.737 2.574 3.607-.686 6.7-3.089 10.48-3.432 3.177-.257 6.356.515 8.76 1.116 2.32.6 5.756 2.059 8.161 1.115 1.374-.515 1.632-1.973 2.577-3.346.773-1.03 2.061-1.716 2.147-3.003.258-1.373-1.116-2.574-2.147-3.518zM99.3 29.6v6h8.4v4.6h-8.4v7.3h8.7v4.6H94V25h14v4.6h-8.7zM136.6 34.5v9.6c0 .6 0 1.1.1 1.6s.2.9.4 1.4c.2.4.5.8.9 1 .4.3.9.4 1.5.4s1.1-.1 1.5-.4c.4-.3.7-.6.9-1 .2-.4.3-.9.4-1.4.1-.5.1-1 .1-1.6v-9.6h5v10.4c0 5.2-2.6 7.8-7.9 7.8-5.3 0-7.9-2.6-7.9-7.8V34.5h5zM155.8 24.9c.6.6.9 1.3.9 2.1s-.3 1.5-.9 2.1c-.6.6-1.3.9-2.1.9s-1.5-.3-2.1-.9c-.6-.6-.9-1.2-.9-2.1 0-.8.3-1.5.9-2.1.6-.6 1.3-.9 2.1-.9.8.1 1.6.4 2.1.9zm.5 27.2h-5V34.5h5v17.6zM169 52.1h-5.3V29.6h-5.5V25h16.2v4.6h-5.5v22.5h.1zM178.5 36.3c1.1-1.6 2.6-2.4 4.5-2.4.6 0 1.3.1 2.1.4l-.6 4.7c-.6-.4-1.3-.6-2.1-.6s-1.5.2-2 .5-.9.8-1.2 1.3c-.3.6-.4 1.2-.5 1.8-.1.6-.1 1.4-.1 2.2v8h-5V34.5h5v1.8h-.1zM198.5 34.6c1.1.5 2.1 1.1 3 2 .8.9 1.5 1.9 1.9 3 .4 1.2.7 2.4.7 3.8s-.2 2.6-.7 3.8c-.4 1.1-1.1 2.1-1.9 3-.8.9-1.8 1.5-3 2s-2.4.7-3.8.7-2.6-.2-3.8-.7c-1.1-.5-2.1-1.1-3-2-.8-.9-1.5-1.8-1.9-3-.4-1.1-.7-2.4-.7-3.8s.2-2.6.7-3.8c.4-1.2 1.1-2.2 1.9-3 .8-.9 1.8-1.5 3-2 1.1-.5 2.4-.7 3.8-.7s2.6.2 3.8.7zm-6.8 5.3c-.8 1-1.2 2.2-1.2 3.5 0 1.3.4 2.4 1.2 3.4.8 1 1.8 1.5 3 1.5s2.2-.5 3-1.5c.8-1 1.2-2.1 1.2-3.4 0-1.3-.4-2.4-1.2-3.5-.8-1-1.8-1.5-3-1.5-1.2-.1-2.2.5-3 1.5zM211.4 36.1c.6-.7 1.2-1.3 2-1.7.8-.4 1.7-.5 2.6-.5 1.2 0 2.1.2 2.9.6.8.4 1.4.9 1.9 1.6.5.7.8 1.5 1 2.4.2.9.3 1.9.3 3v10.8h-5v-9.4c0-.8 0-1.4-.1-2 0-.5-.2-1-.3-1.5-.1-.5-.4-.8-.8-1-.4-.2-.9-.4-1.5-.4-.7 0-1.3.2-1.7.5-.4.3-.7.8-.9 1.3-.2.5-.3 1.1-.4 1.7 0 .6-.1 1.2-.1 1.9v8.7h-5V34.5h5v1.6h.1zM94.3 70.8h4.8V67h1v9.3h-1v-4.6h-4.8v4.6h-1V67h1v3.8zM102.8 67.6c.4 0 .7.3.7.7 0 .4-.3.7-.7.7-.4 0-.7-.3-.7-.7 0-.4.3-.7.7-.7zm.5 2.9v5.8h-1v-5.8h1zM109.7 70.5h1v5.7c0 .6 0 1.5-.6 2.3-.4.6-1.2 1.1-2.3 1.1-1 0-1.7-.4-2.1-.8-.4-.4-.8-1-.8-1.9h1c0 .5.2.9.4 1.2.4.5 1 .6 1.4.6.7 0 1.2-.3 1.5-.8.3-.5.3-1 .3-1.5v-.8c-.3.4-1 1-2 1-.9 0-1.5-.3-2-.8-.4-.4-.8-1.1-.8-2.3 0-1.1.4-1.8.8-2.3.5-.5 1.2-.8 2-.8.9 0 1.5.4 2 1v-.9h.2zm-3.2 1.3c-.5.5-.6 1.1-.6 1.6s.1 1.2.7 1.7c.3.3.7.5 1.2.5s1-.2 1.3-.5c.4-.4.7-1 .7-1.7s-.3-1.3-.6-1.6c-.3-.3-.8-.5-1.3-.5-.7 0-1.1.2-1.4.5zM112.6 66.1h1v5.1c.2-.2.7-.8 1.7-.8.7 0 1.3.3 1.7.8.3.4.3.9.3 1.6v3.6h-1v-3.6c0-.3 0-.8-.3-1.1-.2-.3-.5-.4-1-.4-.4 0-.7.1-1 .4-.4.5-.4 1.1-.4 1.6v3h-1V66.1zM127.5 68h-3.8v2.8h3.7v1h-3.7v3.6h3.8v1h-4.8v-9.3h4.8v.9zM129.2 70.5h1v.7c.2-.2.7-.8 1.7-.8.7 0 1.3.3 1.7.8.3.4.3.9.3 1.6v3.6h-1v-3.6c0-.3 0-.8-.3-1.1-.2-.3-.5-.4-1-.4-.4 0-.7.1-1 .4-.4.5-.4 1.1-.4 1.6v3h-1v-5.8zM140.9 74.8c-.2.3-.4.7-.7.9-.5.5-1.2.7-1.9.7-1.4 0-2.9-.9-2.9-3 0-1.7 1.1-3.1 2.8-3.1 1.1 0 1.8.6 2.2 1.1.4.5.6 1.4.5 2.2h-4.5c0 1.2.8 2 1.8 2 .5 0 .9-.1 1.2-.4.3-.2.5-.5.6-.8l.9.4zm-1-2c-.2-.9-.9-1.5-1.7-1.5-.8 0-1.6.6-1.7 1.5h3.4zM142.5 70.5h1v.6c.1-.2.5-.8 1.3-.8.3 0 .6.1.9.2l-.5.9c-.2-.2-.4-.2-.6-.2-.4 0-.7.2-.8.4-.2.2-.3.6-.3 1.6v3.1h-1v-5.8zM150.8 70.5h1v5.7c0 .6 0 1.5-.6 2.3-.4.6-1.2 1.1-2.3 1.1-1 0-1.7-.4-2.1-.8-.4-.4-.8-1-.8-1.9h1c0 .5.2.9.4 1.2.4.5 1 .6 1.4.6.7 0 1.2-.3 1.5-.8.3-.5.3-1 .3-1.5v-.8c-.3.4-1 1-2 1-.9 0-1.5-.3-2-.8-.4-.4-.8-1.1-.8-2.3 0-1.1.4-1.8.8-2.3.5-.5 1.2-.8 2-.8.9 0 1.5.4 2 1v-.9h.2zm-3.2 1.3c-.5.5-.6 1.1-.6 1.6s.1 1.2.7 1.7c.3.3.7.5 1.2.5s1-.2 1.3-.5c.4-.4.7-1 .7-1.7s-.3-1.3-.6-1.6c-.3-.3-.8-.5-1.3-.5-.7 0-1.1.2-1.4.5zM155.5 75.8l-2.7-5.3h1.1l2.1 4.2 1.9-4.2h1.1l-4.3 9h-1l1.8-3.7zM170.8 69c-.3-.3-.7-.6-1.2-.9-.5-.2-1.1-.4-1.6-.4-2.2 0-3.8 1.7-3.8 3.9 0 2.5 2.1 3.8 3.8 3.8.6 0 1.2-.2 1.7-.4.5-.3.9-.6 1.1-.8v1.3c-1 .7-2.1.9-2.8.9-2.8 0-4.8-2.1-4.8-4.8 0-2.8 2.1-4.9 4.9-4.9.6 0 1.6.1 2.8.9V69h-.1zM177.6 74.8c-.2.3-.4.7-.7.9-.5.5-1.2.7-1.9.7-1.4 0-2.9-.9-2.9-3 0-1.7 1.1-3.1 2.8-3.1 1.1 0 1.8.6 2.2 1.1.4.5.6 1.4.5 2.2h-4.5c0 1.2.8 2 1.8 2 .5 0 .9-.1 1.2-.4.3-.2.5-.5.6-.8l.9.4zm-1-2c-.2-.9-.9-1.5-1.7-1.5-.8 0-1.6.6-1.7 1.5h3.4zM180.2 66.1v10.2h-1V66.1h1zM183.1 66.1v10.2h-1V66.1h1zM190.8 68v8.4h-1V68h-2.3v-1h5.6v1h-2.3zM193.2 70.5h1v.6c.1-.2.5-.8 1.3-.8.3 0 .6.1.9.2l-.5.9c-.2-.2-.4-.2-.6-.2-.4 0-.7.2-.8.4-.2.2-.3.6-.3 1.6v3.1h-1v-5.8zM202.2 74.8c-.2.3-.4.7-.7.9-.5.5-1.2.7-1.9.7-1.4 0-2.9-.9-2.9-3 0-1.7 1.1-3.1 2.8-3.1 1.1 0 1.8.6 2.2 1.1.4.5.6 1.4.5 2.2h-4.5c0 1.2.8 2 1.8 2 .5 0 .9-.1 1.2-.4.3-.2.5-.5.6-.8l.9.4zm-1-2c-.2-.9-.9-1.5-1.7-1.5-.8 0-1.6.6-1.7 1.5h3.4zM208.2 70.5h1v5.8h-1v-.8c-.3.4-1 1-2 1-1.5 0-2.8-1-2.8-3.1 0-2 1.3-3 2.8-3 1.1 0 1.7.6 2 1v-.9zm-3.8 2.9c0 1.2.7 2.2 1.9 2.2s1.9-1 1.9-2.2c0-1.5-1-2.2-1.9-2.2-1 .1-1.9.8-1.9 2.2zM212.1 71.4v4.9h-1v-4.9h-.6v-.9h.6v-2.1h1v2.1h1v.9h-1zM214.1 70.5h1v.6c.3-.5.8-.8 1.4-.8 1.1 0 1.5.7 1.6.9.6-.9 1.4-.9 1.8-.9 1.7 0 1.9 1.4 1.9 2.3v3.7h-1v-3.5c0-.7-.1-1.5-1-1.5-1.2 0-1.3 1.1-1.3 1.8v3.2h-1v-3.4c0-.4 0-1.6-1-1.6-1.1 0-1.3 1.2-1.3 1.9v3.2h-1v-5.9h-.1zM228.8 74.8c-.2.3-.4.7-.7.9-.5.5-1.2.7-1.9.7-1.4 0-2.9-.9-2.9-3 0-1.7 1.1-3.1 2.8-3.1 1.1 0 1.8.6 2.2 1.1.4.5.6 1.4.5 2.2h-4.5c0 1.2.8 2 1.8 2 .5 0 .9-.1 1.2-.4.3-.2.5-.5.6-.8l.9.4zm-1-2c-.2-.9-.9-1.5-1.7-1.5-.8 0-1.6.6-1.7 1.5h3.4zM230.4 70.5h1v.7c.2-.2.7-.8 1.7-.8.7 0 1.3.3 1.7.8.3.4.3.9.3 1.6v3.6h-1v-3.6c0-.3 0-.8-.3-1.1-.2-.3-.5-.4-1-.4-.3 0-.7.1-1 .4-.4.5-.4 1.1-.4 1.6v3h-1v-5.8zM238 71.4v4.9h-1v-4.9h-.6v-.9h.6v-2.1h1v2.1h1v.9h-1zM229.7 51c0-.8.1-1.5.6-2 .5-.6 1.2-.7 1.7-.7 1.1 0 2.2.7 2.2 2.5v.8h3.5v.9h-8V51zm3.7.6v-.7c0-1.1-.5-1.7-1.5-1.7-1.3 0-1.4 1.2-1.4 1.8v.7h2.9v-.1zM229.7 45.7c0-.5 0-1.3.4-1.9.3-.5.9-.9 1.8-.9 1.2 0 2.1.8 2.2 2l3.6-2.5v1.1l-3.5 2.4v.2h3.5v.9h-8v-1.3zm3.7.4v-.6c0-1.1-.5-1.8-1.5-1.8-.4 0-.9.1-1.2.6-.2.4-.2.8-.2 1.2v.5h2.9v.1zM233.7 41.4c-2.4 0-4.1-1.9-4.1-4.2 0-2.3 1.8-4.2 4.1-4.2 2.4 0 4.1 1.8 4.1 4.2 0 2.4-1.7 4.2-4.1 4.2zm0-.9c1.8 0 3.3-1.5 3.3-3.3 0-1.8-1.5-3.3-3.3-3.3-1.8 0-3.3 1.5-3.3 3.3 0 1.8 1.5 3.3 3.3 3.3z"/></g><defs><clipPath id="cclip0_96:167"><path transform="translate(.7 .487)" d="M0 0h238.3v83.8H0z"/></clipPath></defs></svg><svg viewBox="0 0 15 13" id="twitter" xmlns="http://www.w3.org/2000/svg"><path d="M15 1.544c-.59.27-1.18.44-1.77.508A3.157 3.157 0 0014.58.244c-.609.386-1.26.65-1.95.792C12.02.346 11.271 0 10.383 0c-.85 0-1.575.32-2.175.96-.6.64-.9 1.413-.9 2.32 0 .244.026.495.077.752a8.15 8.15 0 01-3.536-1.01A8.852 8.852 0 011.047.598a3.38 3.38 0 00-.419 1.656c0 .562.124 1.083.371 1.564.248.48.581.87 1 1.168a2.906 2.906 0 01-1.39-.417v.04c0 .793.233 1.489.7 2.088.466.6 1.055.977 1.765 1.132a2.996 2.996 0 01-.809.112c-.178 0-.371-.017-.58-.05a3.213 3.213 0 001.085 1.62 2.88 2.88 0 001.789.655C3.442 11.1 2.17 11.568.742 11.568c-.272 0-.52-.013-.742-.04A8.152 8.152 0 004.72 13a8.475 8.475 0 003.075-.553c.958-.37 1.777-.864 2.456-1.483a9.76 9.76 0 001.756-2.138 9.906 9.906 0 001.451-5.586A6.69 6.69 0 0015 1.544z"/></svg><svg viewBox="0 0 21 15" id="youtube" xmlns="http://www.w3.org/2000/svg"><path d="M20.108 1.391C19.538.378 18.92.191 17.66.121 16.404.035 13.241 0 10.503 0 7.758 0 4.595.035 3.339.12 2.083.191 1.463.376.889 1.39.302 2.403 0 4.146 0 7.215v.01c0 3.056.302 4.812.889 5.813.574 1.014 1.193 1.197 2.449 1.283 1.257.073 4.42.117 7.165.117 2.739 0 5.9-.044 7.16-.116 1.258-.085 1.876-.27 2.446-1.282.592-1.002.891-2.758.891-5.813V7.22v-.004c0-3.07-.3-4.813-.892-5.825zM7.875 11.156V3.281l6.563 3.938-6.563 3.937z"/></svg></svg>