<?xml version="1.0" encoding="utf-8"?><svg viewBox="0 0 239 85" xmlns="http://www.w3.org/2000/svg" xmlns:xlink="http://www.w3.org/1999/xlink"><style>:root>svg{display:none}:root>svg:target{display:block}</style><svg viewBox="0 0 76 76" id="dnk" xmlns="http://www.w3.org/2000/svg"><g clip-path="url(#aclip0_96:78)"><path d="M49.005 61.898c-1.597-2.083-3.459-3.84-5.394-5.456 5.183-4.338 9.78-9.657 9.78-18.442 0-4.89-1.434-9.139-4.386-12.988-1.596-2.083-3.459-3.84-5.394-5.457 5.203-4.361 9.78-9.712 9.78-18.442a1.113 1.113 0 10-2.226 0c0 8.383-4.693 13.212-9.318 17.014-.57-.45-1.14-.892-1.708-1.332-5.593-4.334-10.07-7.803-10.51-14.568h16.746c-.089 1.5-.393 3.138-1.236 4.912H35.62a1.113 1.113 0 000 2.227h8.204c-.764 1.079-1.745 2.202-3.01 3.37a1.114 1.114 0 001.511 1.635c3.119-2.88 6.307-6.708 6.307-13.258C48.632.5 48.134 0 47.52 0H28.481c-.615 0-1.114.499-1.114 1.113 0 8.602 5.542 12.896 11.41 17.443 2.996 2.323 6.095 4.725 8.461 7.81 2.643 3.447 3.927 7.252 3.927 11.634 0 3.839-.97 7.2-2.968 10.278-1.791 2.76-4.176 4.946-6.35 6.736-.57-.45-1.14-.892-1.708-1.332l-.34-.263c4.925-3.973 8.833-8.083 8.833-15.419 0-8.602-5.541-12.896-11.408-17.442-2.997-2.323-6.096-4.725-8.463-7.811C26.12 9.3 24.834 5.495 24.834 1.113a1.113 1.113 0 00-2.226 0c0 4.89 1.435 9.14 4.386 12.989 1.597 2.082 3.46 3.84 5.395 5.456-5.193 4.35-9.781 9.683-9.781 18.442 0 4.89 1.435 9.14 4.386 12.989 1.597 2.082 3.46 3.84 5.395 5.456-5.194 4.35-9.781 9.686-9.781 18.442a1.113 1.113 0 002.226 0c0-8.413 4.708-13.224 9.319-17.014.57.45 1.14.892 1.707 1.332 5.593 4.334 10.07 7.803 10.51 14.568H29.625c.088-1.5.393-3.138 1.236-4.912h9.519a1.113 1.113 0 000-2.227h-8.205c.764-1.079 1.746-2.202 3.01-3.37a1.113 1.113 0 00-1.51-1.635c-3.12 2.88-6.308 6.709-6.308 13.258 0 .614.499 1.113 1.114 1.113h19.038c.615 0 1.113-.499 1.113-1.113 0-8.602-5.541-12.896-11.408-17.442-2.997-2.323-6.096-4.724-8.463-7.81-2.642-3.447-3.927-7.253-3.927-11.635 0-8.416 4.71-13.225 9.319-17.014.57.45 1.14.892 1.707 1.332l.34.263C31.272 26.56 27.368 30.678 27.368 38c0 8.602 5.541 12.896 11.408 17.442 2.997 2.322 6.096 4.724 8.462 7.81 2.643 3.447 3.928 7.252 3.928 11.635a1.113 1.113 0 002.226 0c0-4.891-1.435-9.14-4.387-12.99zM38.001 23.99c2.335 1.86 4.371 3.657 5.856 5.756H32.15c1.488-2.105 3.528-3.905 5.85-5.756zm-7.149 7.983h14.303c.669 1.446 1.091 3.056 1.212 4.913H29.632c.122-1.855.549-3.465 1.22-4.913zm-1.22 7.14h16.736c-.122 1.855-.548 3.465-1.218 4.912H30.845c-.669-1.446-1.091-3.056-1.212-4.913zM38 52.008c-2.335-1.86-4.372-3.657-5.856-5.756h11.71c-1.489 2.106-3.53 3.905-5.854 5.756z"/></g><defs><clipPath id="aclip0_96:78"><path d="M0 0h76v76H0z"/></clipPath></defs></svg><svg viewBox="0 0 76 76" id="fire" xmlns="http://www.w3.org/2000/svg"><path d="M39.438 73.946c-2.718.01-5.417-.46-7.972-1.388-9.159-3.357-15.269-8.644-18.158-15.713-4.742-11.605.889-23.7 1.13-24.208a1.027 1.027 0 011.917.165 13.528 13.528 0 004.211 5.994c2.351-11.799 12.643-18.938 13.1-19.252 6.64-5.316 1.217-15.878 1.162-15.983a1.027 1.027 0 011.555-1.275c18.289 14.84 17.237 29.788 15.761 35.93a9.963 9.963 0 003.726-9.217 1.027 1.027 0 011.867-.719 46.538 46.538 0 014.8 9.883 28.066 28.066 0 01-4.818 27.08l-.22.269a23.313 23.313 0 01-18.061 8.434zm-7.265-3.316a21.047 21.047 0 007.265 1.262 21.27 21.27 0 0016.473-7.686l.206-.257a26.026 26.026 0 004.477-25.106 46.552 46.552 0 00-2.76-6.315c-1.13 6.18-7.042 9.053-7.114 9.087a1.027 1.027 0 01-1.368-1.367c.324-.696 7.394-16.535-11.215-33.728 1.187 4.115 1.896 10.551-3.257 14.674-.172.12-11.079 7.709-12.568 19.616a1.027 1.027 0 01-1.596.719 19.06 19.06 0 01-5.31-5.728c-1.35 3.945-3.432 12.367-.192 20.275 2.664 6.506 8.37 11.4 16.958 14.548v.006z"/><path d="M35.062 73.527c-.242 0-.477-.086-.662-.241-13.087-11.033-3.866-25.141-3.772-25.282a1.027 1.027 0 011.878.508 6.889 6.889 0 001.603 4.304 20.872 20.872 0 019.053-20.18 1.027 1.027 0 011.43 1.359 7.13 7.13 0 00-.828 3.476 7.538 7.538 0 001.29 3.94l.41.628a64.384 64.384 0 004.417 5.815 18.107 18.107 0 012.915 4.964C57.944 63.43 49.1 71.795 49.013 71.88a1.027 1.027 0 01-1.397-1.506c.322-.3 7.831-7.456 3.31-16.705a1.002 1.002 0 01-.046-.112 16.148 16.148 0 00-2.58-4.39 66.274 66.274 0 01-4.557-6.003l-.41-.628a9.593 9.593 0 01-1.625-5.022c-.009-.4.01-.8.053-1.198-2.958 2.796-7.292 8.75-5.248 18.486a1.028 1.028 0 01-1.303 1.195 7.014 7.014 0 01-4.17-4.403c-1.822 4.149-4.006 12.797 4.682 20.123a1.027 1.027 0 01-.662 1.813l.002-.003z"/></svg><svg viewBox="0 0 15 14" id="linkedin" xmlns="http://www.w3.org/2000/svg"><path d="M3.226 4.409H.176v9.16h3.05v-9.16zM1.72 0C1.207 0 .792.15.475.448A1.488 1.488 0 000 1.581c0 .45.154.825.462 1.127.308.302.715.453 1.22.453h.019c.517 0 .935-.15 1.252-.453.317-.302.473-.678.467-1.127-.006-.457-.164-.834-.472-1.133C2.64.15 2.231 0 1.72 0zM13.236 5.245c-.641-.699-1.489-1.049-2.542-1.049-.388 0-.741.048-1.059.144-.317.095-.585.23-.804.402a3.943 3.943 0 00-.522.48c-.123.14-.243.304-.36.49V4.408H4.908l.009.443c.006.296.01 1.208.01 2.736 0 1.528-.007 3.522-.02 5.98H7.95V8.457c0-.314.033-.564.101-.749.13-.314.325-.577.587-.79.262-.213.587-.319.976-.319.53 0 .92.183 1.169.55.25.367.374.874.374 1.52v4.9h3.04v-5.25c0-1.35-.32-2.374-.96-3.074z"/></svg><svg viewBox="0 0 239 85" id="logo" xmlns="http://www.w3.org/2000/svg"><g clip-path="url(#dclip0_96:167)"><path d="M117.86 51.21c1.632 0 3.872-.512 5.248-2.336v8.096h4.96V34.73h-4.96v2.176c-1.376-1.824-3.616-2.336-5.248-2.336-4.032 0-7.2 2.816-7.2 8.32 0 5.184 3.168 8.32 7.2 8.32zm1.504-12.736c2.4 0 3.744 1.856 3.744 4.416 0 2.592-1.344 4.416-3.744 4.416-2.4 0-3.744-1.824-3.744-4.416 0-2.56 1.344-4.416 3.744-4.416zM73.821 31.507c-7.387-6.693-16.407-11.24-27.23-14.157-.773-1.287.602-3.432 0-4.72-.257-.6-1.03-.772-1.632-.514-1.632.858-3.092 3.089-4.209 4.633-13.572.343-22.075 6.092-27.916 14.329-2.92 4.118-5.068 9.266-5.67 15.444-.687 6.435.86 12.87 3.179 17.761 4.38 9.267 12.884 16.216 24.05 18.19 13.315 2.317 23.709-3.346 30.151-10.296.172-.258.172-.515-.086-.772-.687-.601-1.804-.515-2.49.085-6.186 6.007-15.205 10.811-27.145 8.666-9.878-1.63-18.124-8.065-22.247-16.73-2.233-4.634-3.522-10.383-3.007-16.132.43-5.748 2.32-10.553 5.068-14.5 5.326-7.808 14.431-14.071 27.574-13.557.43-1.458 1.288-3.088 2.147-3.775-.086 1.287.172 2.317.344 3.432 10.136 2.917 19.327 6.693 26.37 12.699.773.686 2.749 2.059 2.663 2.917-.086.686-1.46 1.287-1.89 1.973-.859 1.287-.687 2.746-1.975 3.09-.86.257-2.405-.258-3.694-.516-3.78-.858-6.872-2.402-10.737-2.66-3.694-.257-5.841 1.288-7.989 2.403-1.46.772-2.92 1.373-4.638 1.63-3.694.6-7.473-.6-9.62-2.574-.43-.429-1.46-2.745-2.406-1.887-.43.429.43 1.716.687 2.145.773 1.115 1.031 1.373 1.633 1.887 2.061 1.716 6.528 3.346 10.737 2.574 3.607-.686 6.7-3.089 10.48-3.432 3.177-.257 6.356.515 8.76 1.116 2.32.6 5.756 2.059 8.161 1.115 1.374-.515 1.632-1.973 2.577-3.346.773-1.03 2.061-1.716 2.147-3.003.258-1.373-1.116-2.574-2.147-3.518zM99.3 29.6v6h8.4v4.6h-8.4v7.3h8.7v4.6H94V25h14v4.6h-8.7zM136.6 34.5v9.6c0 .6 0 1.1.1 1.6s.2.9.4 1.4c.2.4.5.8.9 1 .4.3.9.4 1.5.4s1.1-.1 1.5-.4c.4-.3.7-.6.9-1 .2-.4.3-.9.4-1.4.1-.5.1-1 .1-1.6v-9.6h5v10.4c0 5.2-2.6 7.8-7.9 7.8-5.3 0-7.9-2.6-7.9-7.8V34.5h5zM155.8 24.9c.6.6.9 1.3.9 2.1s-.3 1.5-.9 2.1c-.6.6-1.3.9-2.1.9s-1.5-.3-2.1-.9c-.6-.6-.9-1.2-.9-2.1 0-.8.3-1.5.9-2.1.6-.6 1.3-.9 2.1-.9.8.1 1.6.4 2.1.9zm.5 27.2h-5V34.5h5v17.6zM169 52.1h-5.3V29.6h-5.5V25h16.2v4.6h-5.5v22.5h.1zM178.5 36.3c1.1-1.6 2.6-2.4 4.5-2.4.6 0 1.3.1 2.1.4l-.6 4.7c-.6-.4-1.3-.6-2.1-.6s-1.5.2-2 .5-.9.8-1.2 1.3c-.3.6-.4 1.2-.5 1.8-.1.6-.1 1.4-.1 2.2v8h-5V34.5h5v1.8h-.1zM198.5 34.6c1.1.5 2.1 1.1 3 2 .8.9 1.5 1.9 1.9 3 .4 1.2.7 2.4.7 3.8s-.2 2.6-.7 3.8c-.4 1.1-1.1 2.1-1.9 3-.8.9-1.8 1.5-3 2s-2.4.7-3.8.7-2.6-.2-3.8-.7c-1.1-.5-2.1-1.1-3-2-.8-.9-1.5-1.8-1.9-3-.4-1.1-.7-2.4-.7-3.8s.2-2.6.7-3.8c.4-1.2 1.1-2.2 1.9-3 .8-.9 1.8-1.5 3-2 1.1-.5 2.4-.7 3.8-.7s2.6.2 3.8.7zm-6.8 5.3c-.8 1-1.2 2.2-1.2 3.5 0 1.3.4 2.4 1.2 3.4.8 1 1.8 1.5 3 1.5s2.2-.5 3-1.5c.8-1 1.2-2.1 1.2-3.4 0-1.3-.4-2.4-1.2-3.5-.8-1-1.8-1.5-3-1.5-1.2-.1-2.2.5-3 1.5zM211.4 36.1c.6-.7 1.2-1.3 2-1.7.8-.4 1.7-.5 2.6-.5 1.2 0 2.1.2 2.9.6.8.4 1.4.9 1.9 1.6.5.7.8 1.5 1 2.4.2.9.3 1.9.3 3v10.8h-5v-9.4c0-.8 0-1.4-.1-2 0-.5-.2-1-.3-1.5-.1-.5-.4-.8-.8-1-.4-.2-.9-.4-1.5-.4-.7 0-1.3.2-1.7.5-.4.3-.7.8-.9 1.3-.2.5-.3 1.1-.4 1.7 0 .6-.1 1.2-.1 1.9v8.7h-5V34.5h5v1.6h.1zM94.3 70.8h4.8V67h1v9.3h-1v-4.6h-4.8v4.6h-1V67h1v3.8zM102.8 67.6c.4 0 .7.3.7.7 0 .4-.3.7-.7.7-.4 0-.7-.3-.7-.7 0-.4.3-.7.7-.7zm.5 2.9v5.8h-1v-5.8h1zM109.7 70.5h1v5.7c0 .6 0 1.5-.6 2.3-.4.6-1.2 1.1-2.3 1.1-1 0-1.7-.4-2.1-.8-.4-.4-.8-1-.8-1.9h1c0 .5.2.9.4 1.2.4.5 1 .6 1.4.6.7 0 1.2-.3 1.5-.8.3-.5.3-1 .3-1.5v-.8c-.3.4-1 1-2 1-.9 0-1.5-.3-2-.8-.4-.4-.8-1.1-.8-2.3 0-1.1.4-1.8.8-2.3.5-.5 1.2-.8 2-.8.9 0 1.5.4 2 1v-.9h.2zm-3.2 1.3c-.5.5-.6 1.1-.6 1.6s.1 1.2.7 1.7c.3.3.7.5 1.2.5s1-.2 1.3-.5c.4-.4.7-1 .7-1.7s-.3-1.3-.6-1.6c-.3-.3-.8-.5-1.3-.5-.7 0-1.1.2-1.4.5zM112.6 66.1h1v5.1c.2-.2.7-.8 1.7-.8.7 0 1.3.3 1.7.8.3.4.3.9.3 1.6v3.6h-1v-3.6c0-.3 0-.8-.3-1.1-.2-.3-.5-.4-1-.4-.4 0-.7.1-1 .4-.4.5-.4 1.1-.4 1.6v3h-1V66.1zM127.5 68h-3.8v2.8h3.7v1h-3.7v3.6h3.8v1h-4.8v-9.3h4.8v.9zM129.2 70.5h1v.7c.2-.2.7-.8 1.7-.8.7 0 1.3.3 1.7.8.3.4.3.9.3 1.6v3.6h-1v-3.6c0-.3 0-.8-.3-1.1-.2-.3-.5-.4-1-.4-.4 0-.7.1-1 .4-.4.5-.4 1.1-.4 1.6v3h-1v-5.8zM140.9 74.8c-.2.3-.4.7-.7.9-.5.5-1.2.7-1.9.7-1.4 0-2.9-.9-2.9-3 0-1.7 1.1-3.1 2.8-3.1 1.1 0 1.8.6 2.2 1.1.4.5.6 1.4.5 2.2h-4.5c0 1.2.8 2 1.8 2 .5 0 .9-.1 1.2-.4.3-.2.5-.5.6-.8l.9.4zm-1-2c-.2-.9-.9-1.5-1.7-1.5-.8 0-1.6.6-1.7 1.5h3.4zM142.5 70.5h1v.6c.1-.2.5-.8 1.3-.8.3 0 .6.1.9.2l-.5.9c-.2-.2-.4-.2-.6-.2-.4 0-.7.2-.8.4-.2.2-.3.6-.3 1.6v3.1h-1v-5.8zM150.8 70.5h1v5.7c0 .6 0 1.5-.6 2.3-.4.6-1.2 1.1-2.3 1.1-1 0-1.7-.4-2.1-.8-.4-.4-.8-1-.8-1.9h1c0 .5.2.9.4 1.2.4.5 1 .6 1.4.6.7 0 1.2-.3 1.5-.8.3-.5.3-1 .3-1.5v-.8c-.3.4-1 1-2 1-.9 0-1.5-.3-2-.8-.4-.4-.8-1.1-.8-2.3 0-1.1.4-1.8.8-2.3.5-.5 1.2-.8 2-.8.9 0 1.5.4 2 1v-.9h.2zm-3.2 1.3c-.5.5-.6 1.1-.6 1.6s.1 1.2.7 1.7c.3.3.7.5 1.2.5s1-.2 1.3-.5c.4-.4.7-1 .7-1.7s-.3-1.3-.6-1.6c-.3-.3-.8-.5-1.3-.5-.7 0-1.1.2-1.4.5zM155.5 75.8l-2.7-5.3h1.1l2.1 4.2 1.9-4.2h1.1l-4.3 9h-1l1.8-3.7zM170.8 69c-.3-.3-.7-.6-1.2-.9-.5-.2-1.1-.4-1.6-.4-2.2 0-3.8 1.7-3.8 3.9 0 2.5 2.1 3.8 3.8 3.8.6 0 1.2-.2 1.7-.4.5-.3.9-.6 1.1-.8v1.3c-1 .7-2.1.9-2.8.9-2.8 0-4.8-2.1-4.8-4.8 0-2.8 2.1-4.9 4.9-4.9.6 0 1.6.1 2.8.9V69h-.1zM177.6 74.8c-.2.3-.4.7-.7.9-.5.5-1.2.7-1.9.7-1.4 0-2.9-.9-2.9-3 0-1.7 1.1-3.1 2.8-3.1 1.1 0 1.8.6 2.2 1.1.4.5.6 1.4.5 2.2h-4.5c0 1.2.8 2 1.8 2 .5 0 .9-.1 1.2-.4.3-.2.5-.5.6-.8l.9.4zm-1-2c-.2-.9-.9-1.5-1.7-1.5-.8 0-1.6.6-1.7 1.5h3.4zM180.2 66.1v10.2h-1V66.1h1zM183.1 66.1v10.2h-1V66.1h1zM190.8 68v8.4h-1V68h-2.3v-1h5.6v1h-2.3zM193.2 70.5h1v.6c.1-.2.5-.8 1.3-.8.3 0 .6.1.9.2l-.5.9c-.2-.2-.4-.2-.6-.2-.4 0-.7.2-.8.4-.2.2-.3.6-.3 1.6v3.1h-1v-5.8zM202.2 74.8c-.2.3-.4.7-.7.9-.5.5-1.2.7-1.9.7-1.4 0-2.9-.9-2.9-3 0-1.7 1.1-3.1 2.8-3.1 1.1 0 1.8.6 2.2 1.1.4.5.6 1.4.5 2.2h-4.5c0 1.2.8 2 1.8 2 .5 0 .9-.1 1.2-.4.3-.2.5-.5.6-.8l.9.4zm-1-2c-.2-.9-.9-1.5-1.7-1.5-.8 0-1.6.6-1.7 1.5h3.4zM208.2 70.5h1v5.8h-1v-.8c-.3.4-1 1-2 1-1.5 0-2.8-1-2.8-3.1 0-2 1.3-3 2.8-3 1.1 0 1.7.6 2 1v-.9zm-3.8 2.9c0 1.2.7 2.2 1.9 2.2s1.9-1 1.9-2.2c0-1.5-1-2.2-1.9-2.2-1 .1-1.9.8-1.9 2.2zM212.1 71.4v4.9h-1v-4.9h-.6v-.9h.6v-2.1h1v2.1h1v.9h-1zM214.1 70.5h1v.6c.3-.5.8-.8 1.4-.8 1.1 0 1.5.7 1.6.9.6-.9 1.4-.9 1.8-.9 1.7 0 1.9 1.4 1.9 2.3v3.7h-1v-3.5c0-.7-.1-1.5-1-1.5-1.2 0-1.3 1.1-1.3 1.8v3.2h-1v-3.4c0-.4 0-1.6-1-1.6-1.1 0-1.3 1.2-1.3 1.9v3.2h-1v-5.9h-.1zM228.8 74.8c-.2.3-.4.7-.7.9-.5.5-1.2.7-1.9.7-1.4 0-2.9-.9-2.9-3 0-1.7 1.1-3.1 2.8-3.1 1.1 0 1.8.6 2.2 1.1.4.5.6 1.4.5 2.2h-4.5c0 1.2.8 2 1.8 2 .5 0 .9-.1 1.2-.4.3-.2.5-.5.6-.8l.9.4zm-1-2c-.2-.9-.9-1.5-1.7-1.5-.8 0-1.6.6-1.7 1.5h3.4zM230.4 70.5h1v.7c.2-.2.7-.8 1.7-.8.7 0 1.3.3 1.7.8.3.4.3.9.3 1.6v3.6h-1v-3.6c0-.3 0-.8-.3-1.1-.2-.3-.5-.4-1-.4-.3 0-.7.1-1 .4-.4.5-.4 1.1-.4 1.6v3h-1v-5.8zM238 71.4v4.9h-1v-4.9h-.6v-.9h.6v-2.1h1v2.1h1v.9h-1zM229.7 51c0-.8.1-1.5.6-2 .5-.6 1.2-.7 1.7-.7 1.1 0 2.2.7 2.2 2.5v.8h3.5v.9h-8V51zm3.7.6v-.7c0-1.1-.5-1.7-1.5-1.7-1.3 0-1.4 1.2-1.4 1.8v.7h2.9v-.1zM229.7 45.7c0-.5 0-1.3.4-1.9.3-.5.9-.9 1.8-.9 1.2 0 2.1.8 2.2 2l3.6-2.5v1.1l-3.5 2.4v.2h3.5v.9h-8v-1.3zm3.7.4v-.6c0-1.1-.5-1.8-1.5-1.8-.4 0-.9.1-1.2.6-.2.4-.2.8-.2 1.2v.5h2.9v.1zM233.7 41.4c-2.4 0-4.1-1.9-4.1-4.2 0-2.3 1.8-4.2 4.1-4.2 2.4 0 4.1 1.8 4.1 4.2 0 2.4-1.7 4.2-4.1 4.2zm0-.9c1.8 0 3.3-1.5 3.3-3.3 0-1.8-1.5-3.3-3.3-3.3-1.8 0-3.3 1.5-3.3 3.3 0 1.8 1.5 3.3 3.3 3.3z"/></g><defs><clipPath id="dclip0_96:167"><path transform="translate(.7 .487)" d="M0 0h238.3v83.8H0z"/></clipPath></defs></svg><svg viewBox="0 0 62 62" id="muscle" xmlns="http://www.w3.org/2000/svg"><g clip-path="url(#eclip0_96:82)"><path d="M61.093 1.714l-.822-.822a3.174 3.174 0 00-4.385 0l-3.14 3.14C49.694 7.084 46.03 8.295 41.79 9.7c-5.916 1.956-12.62 4.174-20.261 11.814-7.64 7.64-9.858 14.345-11.815 20.261-1.403 4.241-2.615 7.904-5.667 10.956l-3.14 3.14a3.104 3.104 0 000 4.386l.823.822a3.1 3.1 0 004.384 0l3.14-3.14c3.052-3.052 6.716-4.264 10.956-5.667 5.916-1.957 12.62-4.175 20.261-11.815 7.64-7.64 9.859-14.345 11.815-20.26 1.403-4.242 2.615-7.905 5.667-10.957l3.14-3.14a3.104 3.104 0 000-4.385zM4.653 59.617c-.408.39-1.052.39-1.46 0H3.19l-.823-.823a1.035 1.035 0 010-1.462l2.41-2.41.517.517v.001l.002.001 1.766 1.766-2.41 2.41zm3.894-9.48a42.683 42.683 0 003.128-7.713c1.885-5.698 4.022-12.156 11.315-19.45 7.293-7.293 13.751-9.43 19.449-11.314a42.72 42.72 0 007.708-3.125c-2.28 1.681-4.83 3.255-7.474 4.884-5.263 3.242-11.227 6.918-16.775 12.465-5.546 5.546-9.22 11.51-12.463 16.772-1.63 2.646-3.205 5.2-4.888 7.481zM49.486 13.96a212.93 212.93 0 00-2.68 4.27c-3.183 5.165-6.791 11.019-12.166 16.394C29.264 40 23.41 43.608 18.243 46.791c-1.46.9-2.887 1.784-4.267 2.68l35.51-35.51zM12.514 48.01a212.93 212.93 0 002.68-4.27c3.183-5.165 6.791-11.02 12.166-16.395 5.376-5.375 11.231-8.983 16.397-12.167 1.46-.9 2.888-1.783 4.268-2.679l-35.51 35.51zm37.81-28.464c-1.885 5.698-4.02 12.156-11.314 19.449-7.293 7.293-13.751 9.43-19.449 11.314a42.721 42.721 0 00-7.708 3.125c2.28-1.681 4.83-3.254 7.474-4.883 5.263-3.243 11.227-6.918 16.774-12.465 5.547-5.547 9.221-11.51 12.464-16.773 1.63-2.646 3.205-5.2 4.888-7.48a42.654 42.654 0 00-3.128 7.713zm9.308-14.908l-2.41 2.41-.517-.517v-.002h-.002l-1.766-1.766 2.41-2.41a1.058 1.058 0 011.462 0l.823.823a1.036 1.036 0 010 1.462z"/></g><defs><clipPath id="eclip0_96:82"><path d="M0 0h62v62H0z"/></clipPath></defs></svg><svg viewBox="0 0 57 72" id="protect" xmlns="http://www.w3.org/2000/svg"><path d="M55.353 14.578L28.293.158a1.344 1.344 0 00-1.282.008L.7 14.586c-.431.236-.699.689-.699 1.181v18.836a39 39 0 0023.375 35.693l3.653 1.592c.34.149.73.15 1.072.001l4.115-1.777a38.923 38.923 0 0023.851-35.883V15.767c0-.497-.274-.955-.713-1.189zm-1.981 19.651A36.235 36.235 0 0131.16 67.633l-.009.005-3.584 1.547-3.114-1.358a36.302 36.302 0 01-21.76-33.224V16.565L27.668 2.878l25.705 13.697v17.654z"/><path d="M48.742 19.694L28.207 8.784a1.023 1.023 0 00-.972.005L7.27 19.699c-.328.18-.531.522-.531.895v14.252c.012 11.716 6.973 22.315 17.738 27.01l2.772 1.203c.259.113.554.114.813.002l3.123-1.345c10.965-4.592 18.098-15.294 18.1-27.152v-13.97a1.02 1.02 0 00-.542-.9zm-1.503 14.87c-.003 11.04-6.646 21.003-16.855 25.276l-.007.004-2.72 1.17-2.363-1.028c-10.02-4.369-16.5-14.234-16.512-25.14V21.198L27.733 10.84 47.24 21.205v13.359z"/><rect x="26.952" y="27.337" width="2.31" height="17.134" rx="1.155"/><rect x="19.444" y="37.155" width="2.31" height="17.134" rx="1.155" transform="rotate(-90 19.444 37.155)"/></svg><svg viewBox="0 0 15 13" id="twitter" xmlns="http://www.w3.org/2000/svg"><path d="M15 1.544c-.59.27-1.18.44-1.77.508A3.157 3.157 0 0014.58.244c-.609.386-1.26.65-1.95.792C12.02.346 11.271 0 10.383 0c-.85 0-1.575.32-2.175.96-.6.64-.9 1.413-.9 2.32 0 .244.026.495.077.752a8.15 8.15 0 01-3.536-1.01A8.852 8.852 0 011.047.598a3.38 3.38 0 00-.419 1.656c0 .562.124 1.083.371 1.564.248.48.581.87 1 1.168a2.906 2.906 0 01-1.39-.417v.04c0 .793.233 1.489.7 2.088.466.6 1.055.977 1.765 1.132a2.996 2.996 0 01-.809.112c-.178 0-.371-.017-.58-.05a3.213 3.213 0 001.085 1.62 2.88 2.88 0 001.789.655C3.442 11.1 2.17 11.568.742 11.568c-.272 0-.52-.013-.742-.04A8.152 8.152 0 004.72 13a8.475 8.475 0 003.075-.553c.958-.37 1.777-.864 2.456-1.483a9.76 9.76 0 001.756-2.138 9.906 9.906 0 001.451-5.586A6.69 6.69 0 0015 1.544z"/></svg><svg viewBox="0 0 21 15" id="youtube" xmlns="http://www.w3.org/2000/svg"><path d="M20.108 1.391C19.538.378 18.92.191 17.66.121 16.404.035 13.241 0 10.503 0 7.758 0 4.595.035 3.339.12 2.083.191 1.463.376.889 1.39.302 2.403 0 4.146 0 7.215v.01c0 3.056.302 4.812.889 5.813.574 1.014 1.193 1.197 2.449 1.283 1.257.073 4.42.117 7.165.117 2.739 0 5.9-.044 7.16-.116 1.258-.085 1.876-.27 2.446-1.282.592-1.002.891-2.758.891-5.813V7.22v-.004c0-3.07-.3-4.813-.892-5.825zM7.875 11.156V3.281l6.563 3.938-6.563 3.937z"/></svg></svg>